<svg xmlns="http://www.w3.org/2000/svg" width="17.23" height="19.577" viewBox="0 0 17.23 19.577">
    <defs>
        <style>
            .cls-1{fill:#0058fb}
        </style>
    </defs>
    <g id="noun_attach_2718467" transform="translate(129.496 -3.093)">
        <g id="Group_231" data-name="Group 231" transform="rotate(90 -57.68 -54.587)">
            <path id="Path_117" d="M20.834 19.582a5.988 5.988 0 0 1-8.471 0L4.284 11.5a4.355 4.355 0 0 1 0-6.162 4.464 4.464 0 0 1 6.163 0l7.306 7.36a2.722 2.722 0 1 1-3.865 3.8l-4.214-4.233a1.089 1.089 0 0 1 1.535-1.535l4.235 4.235a.547.547 0 1 0 .773-.773L8.9 6.876a2.243 2.243 0 0 0-3.081 0 2.178 2.178 0 0 0 0 3.081l8.068 8.09a3.815 3.815 0 0 0 5.444-5.347l-5.008-5.008a1.089 1.089 0 1 1 1.546-1.535l5 5a5.988 5.988 0 0 1-.033 8.427z" class="cls-1" data-name="Path 117" transform="translate(-3.007 -4.107)"/>
        </g>
    </g>
</svg>
