<svg xmlns="http://www.w3.org/2000/svg" width="14.497" height="14.497" viewBox="0 0 14.497 14.497">
    <defs>
        <style>
            .cls-1{fill:#0058fb;fill-rule:evenodd}
        </style>
    </defs>
    <path id="Path_21" d="M63 65.291c.752-.77 1.521-1.539 2.291-2.291 1.36 1.36 3.588 3.57 4.949 4.949 1.378-1.379 3.588-3.589 4.966-4.949l2.294 2.291-4.949 4.949c1.36 1.378 3.588 3.588 4.949 4.966-.77.752-1.539 1.521-2.291 2.291-1.378-1.36-3.588-3.588-4.966-4.949L65.291 77.5 63 75.206c1.36-1.378 3.57-3.588 4.949-4.966-1.379-1.361-3.589-3.589-4.949-4.949z" class="cls-1" data-name="Path 21" transform="translate(-63 -63)"/>
</svg>
