<svg xmlns="http://www.w3.org/2000/svg" width="11.872" height="11.872" viewBox="0 0 11.872 11.872">
    <defs>
        <style>
            .cls-1{fill:#0463f7;fill-rule:evenodd}
        </style>
    </defs>
    <g id="icon_close" transform="translate(-211.312 -339)">
        <path id="icon_close-2" d="M60 61.045c.343-.351.694-.7 1.045-1.045.62.62 4.267 4.259 4.887 4.887.629-.629 4.267-4.267 4.9-4.887l1.045 1.045-4.887 4.887c.62.629 4.267 4.267 4.887 4.9-.351.343-.7.694-1.045 1.045-.629-.62-4.267-4.267-4.9-4.887l-4.887 4.887L60 70.827c.62-.629 4.259-4.267 4.887-4.9-.628-.615-4.267-4.262-4.887-4.882z" class="cls-1" data-name="icon_close" transform="translate(151.312 279)"/>
    </g>
</svg>
