<svg xmlns="http://www.w3.org/2000/svg" width="21.332" height="28.233" viewBox="0 0 21.332 28.233">
    <defs>
        <style>
            .cls-1{fill:#0058fb}
        </style>
    </defs>
    <g id="noun_attached_document_615523" data-name="noun_attached document_615523" transform="translate(603.666 11)">
        <g id="Group_21" data-name="Group 21" transform="translate(-619.666 -968.362)">
            <path id="Path_18" d="M21.176 5a2.446 2.446 0 0 0-2.353 2.51h-1.882a.893.893 0 0 0-.941.941v23.841a.941.941 0 0 0 .941.941h19.45a.941.941 0 0 0 .941-.941V13.47a.941.941 0 0 0-.274-.667l-5.02-5.019a.941.941 0 0 0-.667-.274h-7.842A2.446 2.446 0 0 0 21.176 5zm0 1.882c.221 0 .471.213.471.627V14.1a.941.941 0 1 0 1.882 0V9.392h.941V14.1a1.882 1.882 0 1 1-3.764 0V7.51c-.001-.41.249-.628.47-.628zm-3.294 2.51h.941V14.1a3.764 3.764 0 1 0 7.529 0V9.392H29.8V14.1a.978.978 0 0 0 .941.941h4.706v16.31H17.882zm13.8.7l3.068 3.068h-3.065zm-11.7 9.029a.942.942 0 1 0 .1 1.882h13.162a.941.941 0 1 0 0-1.882H20.078a.512.512 0 0 0-.098-.004zm0 3.451a.942.942 0 1 0 .1 1.882h13.162a.941.941 0 1 0 0-1.882H20.078a.512.512 0 0 0-.098-.005zm0 3.451a.942.942 0 1 0 .1 1.882h13.162a.941.941 0 1 0 0-1.882H20.078a.512.512 0 0 0-.098-.005z" class="cls-1" data-name="Path 18" transform="translate(0 952.362)"/>
        </g>
    </g>
</svg>
