<svg xmlns="http://www.w3.org/2000/svg" width="93.631" height="94" viewBox="0 0 93.631 94">
    <defs>
        <style>
            .cls-1{fill:#0058fb}
        </style>
    </defs>
    <g id="noun_success_2019805" transform="translate(-3.4 -3)">
        <path id="Path_22" d="M50.3 97a47 47 0 1 1 .2-94 45.143 45.143 0 0 1 14.6 2.4A1.979 1.979 0 1 1 64 9.2h-.1A43.268 43.268 0 0 0 9.2 36.8 42.486 42.486 0 0 0 7 50a43.275 43.275 0 0 0 86 6.5 2.022 2.022 0 1 1 4 .6A47.466 47.466 0 0 1 50.3 97z" class="cls-1" data-name="Path 22"/>
        <path id="Path_23" d="M48.5 65.6a1.974 1.974 0 0 1-1.4-.6L27.6 45.6a1.98 1.98 0 0 1 2.8-2.8l18.1 18L90 19.5a1.981 1.981 0 1 1 2.9 2.7l-.1.1L49.9 65a1.974 1.974 0 0 1-1.4.6z" class="cls-1" data-name="Path 23"/>
    </g>
</svg>
