<svg xmlns="http://www.w3.org/2000/svg" width="112.377" height="112.654" viewBox="0 0 112.377 112.654">
    <defs>
        <style>
            .cls-1{fill:#f04d4d}
        </style>
    </defs>
    <g id="noun_success_2019805" transform="translate(5.6 6)">
        <path id="Path_22" d="M50.3 97a47 47 0 1 1 .2-94 45.143 45.143 0 0 1 14.6 2.4A1.979 1.979 0 1 1 64 9.2h-.1A43.268 43.268 0 0 0 9.2 36.8 42.486 42.486 0 0 0 7 50a43.275 43.275 0 0 0 86 6.5 2.022 2.022 0 1 1 4 .6A47.466 47.466 0 0 1 50.3 97z" class="cls-1" data-name="Path 22" transform="rotate(-13 51.835 48.524)"/>
        <rect id="Rectangle_89" width="52" height="4" class="cls-1" data-name="Rectangle 89" rx="2" transform="rotate(-135 47.999 20.888)"/>
        <rect id="Rectangle_90" width="72" height="4" class="cls-1" data-name="Rectangle 90" rx="2" transform="rotate(-45 95.797 -3.31)"/>
    </g>
</svg>
